<svg xmlns="http://www.w3.org/2000/svg" width="41.7" height="41.7" viewBox="0 0 41.7 41.7">
  <path id="Icon_awesome-pinterest-square" data-name="Icon awesome-pinterest-square" d="M41.7,6.718V39.482a4.469,4.469,0,0,1-4.468,4.468H14.372a23.85,23.85,0,0,0,2.55-5.52c.279-1.07,1.424-5.436,1.424-5.436.745,1.424,2.923,2.625,5.24,2.625,6.9,0,11.858-6.339,11.858-14.213,0-7.549-6.162-13.2-14.092-13.2-9.867,0-15.1,6.618-15.1,13.832,0,3.351,1.787,7.521,4.635,8.852.437.2.661.112.763-.307.074-.316.465-1.871.633-2.588a.674.674,0,0,0-.158-.652,8.91,8.91,0,0,1-1.7-5.212A9.894,9.894,0,0,1,20.748,12.21c5.613,0,9.55,3.826,9.55,9.3,0,6.181-3.118,10.462-7.186,10.462a3.324,3.324,0,0,1-3.388-4.133c.642-2.718,1.89-5.65,1.89-7.614,0-4.933-7.028-4.254-7.028,2.327a8.352,8.352,0,0,0,.679,3.4C12.342,38.309,11.9,38.468,12.51,43.876l.2.074H4.468A4.469,4.469,0,0,1,0,39.482V6.718A4.469,4.469,0,0,1,4.468,2.25H37.232A4.469,4.469,0,0,1,41.7,6.718Z" transform="translate(0 -2.25)"/>
</svg>
