<svg xmlns="http://www.w3.org/2000/svg" width="40.7" height="40.7" viewBox="0 0 40.7 40.7">
  <path id="Icon_awesome-instagram" data-name="Icon awesome-instagram" d="M20.349,12.153A10.435,10.435,0,1,0,30.782,22.588,10.417,10.417,0,0,0,20.349,12.153Zm0,17.219a6.784,6.784,0,1,1,6.783-6.784A6.8,6.8,0,0,1,20.349,29.372ZM33.642,11.726a2.433,2.433,0,1,1-2.433-2.434A2.428,2.428,0,0,1,33.642,11.726Zm6.91,2.47c-.154-3.26-.9-6.148-3.287-8.528S32,2.544,28.739,2.381c-3.36-.191-13.429-.191-16.788,0-3.251.154-6.138.9-8.526,3.279S.3,10.927.138,14.187c-.191,3.36-.191,13.432,0,16.792.154,3.26.9,6.148,3.287,8.528s5.266,3.124,8.526,3.288c3.36.191,13.429.191,16.788,0,3.26-.154,6.147-.9,8.526-3.288s3.123-5.267,3.287-8.528c.191-3.36.191-13.423,0-16.783Zm-4.34,20.389a6.868,6.868,0,0,1-3.868,3.869c-2.679,1.063-9.034.817-11.994.817s-9.325.236-11.994-.817a6.868,6.868,0,0,1-3.868-3.869c-1.062-2.679-.817-9.036-.817-12s-.236-9.327.817-12A6.868,6.868,0,0,1,8.355,6.722C11.033,5.659,17.389,5.9,20.349,5.9s9.325-.236,11.994.817a6.868,6.868,0,0,1,3.868,3.869c1.062,2.679.817,9.036.817,12S37.274,31.915,36.212,34.585Z" transform="translate(0.005 -2.238)"/>
</svg>
