<svg xmlns="http://www.w3.org/2000/svg" width="537.667" height="430.133" viewBox="0 0 537.667 430.133">
  <path id="Icon_awesome-business-time" data-name="Icon awesome-business-time" d="M416.692,188.183A120.975,120.975,0,1,0,537.667,309.158,120.909,120.909,0,0,0,416.692,188.183Zm53.767,126.259A8.182,8.182,0,0,1,462.3,322.6H411.416a8.182,8.182,0,0,1-8.157-8.157V250.116a8.182,8.182,0,0,1,8.157-8.157h10.56a8.182,8.182,0,0,1,8.157,8.157v45.6H462.3a8.182,8.182,0,0,1,8.157,8.157ZM416.692,161.3c4.537,0,9.006.277,13.442.68V120.975c0-21.507-18.818-40.325-40.325-40.325H322.6V40.325C322.6,18.818,303.782,0,282.275,0H147.858c-21.507,0-40.325,18.818-40.325,40.325V80.65H40.325C18.818,80.65,0,99.468,0,120.975v67.208H331.942A146.954,146.954,0,0,1,416.692,161.3ZM268.833,80.65H161.3V53.767H268.833Zm5.73,188.183H174.742A13.438,13.438,0,0,1,161.3,255.392V215.067H0V336.042c0,21.507,18.818,40.325,40.325,40.325H285.157a145.875,145.875,0,0,1-10.594-107.533Z"/>
</svg>
