<svg xmlns="http://www.w3.org/2000/svg" width="18.369" height="18.375" viewBox="0 0 18.369 18.375">
  <path id="Icon_awesome-instagram" data-name="Icon awesome-instagram" d="M9.182,6.714a4.711,4.711,0,1,0,4.709,4.711A4.7,4.7,0,0,0,9.182,6.714Zm0,7.774a3.063,3.063,0,1,1,3.061-3.063A3.068,3.068,0,0,1,9.182,14.488Zm6-7.967a1.1,1.1,0,1,1-1.1-1.1A1.1,1.1,0,0,1,15.181,6.521ZM18.3,7.637a5.439,5.439,0,0,0-1.483-3.85A5.469,5.469,0,0,0,12.968,2.3c-1.516-.086-6.061-.086-7.577,0a5.461,5.461,0,0,0-3.848,1.48A5.457,5.457,0,0,0,.059,7.633c-.086,1.517-.086,6.064,0,7.581a5.439,5.439,0,0,0,1.483,3.85,5.476,5.476,0,0,0,3.848,1.484c1.516.086,6.061.086,7.577,0a5.434,5.434,0,0,0,3.848-1.484,5.475,5.475,0,0,0,1.483-3.85c.086-1.517.086-6.06,0-7.577Zm-1.959,9.2A3.1,3.1,0,0,1,14.6,18.588c-1.209.48-4.078.369-5.414.369s-4.209.107-5.414-.369a3.1,3.1,0,0,1-1.746-1.747c-.479-1.21-.369-4.08-.369-5.416s-.107-4.211.369-5.416A3.1,3.1,0,0,1,3.768,4.262c1.209-.48,4.078-.369,5.414-.369s4.209-.107,5.414.369a3.1,3.1,0,0,1,1.746,1.747c.479,1.21.369,4.08.369,5.416S16.82,15.636,16.341,16.842Z" transform="translate(0.005 -2.238)" fill="#fff"/>
</svg>
