<svg id="wind" xmlns="http://www.w3.org/2000/svg" width="31.983" height="22.452" viewBox="0 0 31.983 22.452">
  <path id="Path_1" data-name="Path 1" d="M21.989-435.788c-.087.009-.437.051-.781.093a12.681,12.681,0,0,0-4,1.226c-.344.171-1.243.694-2,1.161a15.646,15.646,0,0,1-2.955,1.563,11.1,11.1,0,0,1-4.429.56,10.059,10.059,0,0,1-5.173-1.734c-.937-.569-1.249-.661-1.787-.532s-.868.467-.868.9c0,.37.131.536.743.93a15.429,15.429,0,0,0,3.523,1.734,15.85,15.85,0,0,0,7.946.217,15.55,15.55,0,0,0,4.9-2.331,12.341,12.341,0,0,1,2.53-1.313,9.528,9.528,0,0,1,3.717-.606,10.113,10.113,0,0,1,6.122,1.841,4.714,4.714,0,0,0,.718.384,1.609,1.609,0,0,0,1.556-.3.566.566,0,0,0,.212-.49c.037-.462-.081-.6-.975-1.152A13.487,13.487,0,0,0,25.55-435.7,33.666,33.666,0,0,0,21.989-435.788Z" transform="translate(0 435.806)" fill="#53a8fe"/>
  <path id="Path_2" data-name="Path 2" d="M22.207-326.717a17.419,17.419,0,0,0-2.093.3,13.445,13.445,0,0,0-4.641,2.04,14.928,14.928,0,0,1-3.511,1.827,11.959,11.959,0,0,1-5.653.264,10.274,10.274,0,0,1-3.686-1.563c-.756-.476-.9-.532-1.337-.532-.781,0-1.287.351-1.287.9,0,.439.137.592,1.018,1.128a13,13,0,0,0,5.572,2.072,23.45,23.45,0,0,0,4.029,0,13.216,13.216,0,0,0,5.891-2.262,15.045,15.045,0,0,1,3.511-1.822,11.958,11.958,0,0,1,5.653-.264,10.275,10.275,0,0,1,3.686,1.563c.756.476.9.532,1.337.532.781,0,1.287-.352,1.287-.9,0-.439-.137-.592-1.018-1.128a12.871,12.871,0,0,0-5.441-2.049A27.382,27.382,0,0,0,22.207-326.717Z" transform="translate(0 334.691)" fill="#53a8fe"/>
  <path id="Path_3" data-name="Path 3" d="M22.37-217.474a13.353,13.353,0,0,0-3.7.745,18.187,18.187,0,0,0-3.7,1.961,12.341,12.341,0,0,1-2.53,1.313,9.529,9.529,0,0,1-3.717.606A10.114,10.114,0,0,1,2.6-214.689a4.708,4.708,0,0,0-.718-.384,1.609,1.609,0,0,0-1.556.3.566.566,0,0,0-.212.49c-.037.462.081.6.975,1.152a13.423,13.423,0,0,0,5.479,2.072,24.85,24.85,0,0,0,4.311,0,13.173,13.173,0,0,0,4.148-1.313c.331-.166,1.187-.671,1.912-1.119a15.412,15.412,0,0,1,2.893-1.526,11.1,11.1,0,0,1,4.429-.56,10.06,10.06,0,0,1,5.173,1.734c.937.569,1.249.661,1.787.532a1.32,1.32,0,0,0,.75-.467.636.636,0,0,0,.106-.5c-.025-.389-.137-.5-.975-1.017a12.979,12.979,0,0,0-7.228-2.192C23.388-217.5,22.714-217.5,22.37-217.474Z" transform="translate(-0.1 233.422)" fill="#53a8fe"/>
</svg>
