<svg xmlns="http://www.w3.org/2000/svg" width="18" height="18" viewBox="0 0 36 36">
  <path id="Icon_ionic-ios-checkmark-circle" data-name="Icon ionic-ios-checkmark-circle" d="M21.375,3.375a18,18,0,1,0,18,18A18,18,0,0,0,21.375,3.375ZM30.591,16.4,19.021,28.021h-.009a1.563,1.563,0,0,1-1,.476A1.515,1.515,0,0,1,17,28L12.15,23.158a.345.345,0,0,1,0-.493l1.54-1.54a.335.335,0,0,1,.485,0l3.842,3.842L28.575,14.331a.342.342,0,0,1,.242-.1h0a.314.314,0,0,1,.242.1L30.574,15.9A.341.341,0,0,1,30.591,16.4Z" transform="translate(-3.375 -3.375)" fill="#007af3"/>
</svg>
