<svg id="Component_1_1" data-name="Component 1 – 1" xmlns="http://www.w3.org/2000/svg" width="34.875" height="34.875" viewBox="0 0 34.875 34.875">
  <path id="Path_4" data-name="Path 4" d="M9.248,3.186a2,2,0,0,1,3.5,0l7.617,13.85A2,2,0,0,1,18.617,20H3.383A2,2,0,0,1,1.63,17.036L5.7,9.632Z" transform="translate(29.639 5.751) rotate(89)" fill="#fff"/>
  <path id="Icon_awesome-play-circle" data-name="Icon awesome-play-circle" d="M18,.563A17.438,17.438,0,1,0,35.438,18,17.434,17.434,0,0,0,18,.563Zm8.135,19.125-12.375,7.1a1.691,1.691,0,0,1-2.51-1.477V10.688a1.692,1.692,0,0,1,2.51-1.477l12.375,7.523A1.693,1.693,0,0,1,26.135,19.688Z" transform="translate(-0.563 -0.563)" fill="#91b2f2"/>
</svg>
