<svg id="Component_1_1" data-name="Component 1 – 1" xmlns="http://www.w3.org/2000/svg" width="106.653" height="99.849" viewBox="0 0 106.653 99.849">
  <g id="vinyl" transform="translate(0 -0.5)">
    <path id="Path_4" data-name="Path 4" d="M53.327,100.349a54.863,54.863,0,0,1-37.705-14.62,47.7,47.7,0,0,1,0-70.608A54.863,54.863,0,0,1,53.327.5,54.863,54.863,0,0,1,91.032,15.12a47.7,47.7,0,0,1,0,70.608A54.863,54.863,0,0,1,53.327,100.349Z" transform="translate(0)" fill="#4c4a40"/>
    <path id="Path_5" data-name="Path 5" d="M290.36,85.728a50.9,50.9,0,0,0,0-70.608A47.635,47.635,0,0,0,256,.5v99.849A47.635,47.635,0,0,0,290.36,85.728Z" transform="translate(-197.941)" fill="#2e2c27"/>
    <path id="Path_6" data-name="Path 6" d="M171.235,191.211a19.825,19.825,0,1,1,19.86-19.825A19.865,19.865,0,0,1,171.235,191.211Z" transform="translate(-117.909 -120.962)" fill="#ffc12e"/>
    <path id="Path_7" data-name="Path 7" d="M275.86,171.386A19.865,19.865,0,0,0,256,151.561v39.65A19.865,19.865,0,0,0,275.86,171.386Z" transform="translate(-201.458 -120.962)" fill="#ff9300"/>
    <path id="Path_8" data-name="Path 8" d="M243.847,246.695a2.846,2.846,0,1,1,2.014-.833A2.872,2.872,0,0,1,243.847,246.695Z" transform="translate(-190.521 -193.423)" fill="#2e2c27"/>
    <path id="Path_9" data-name="Path 9" d="M258.014,245.861A2.847,2.847,0,0,0,256,241v5.695A2.871,2.871,0,0,0,258.014,245.861Z" transform="translate(-202.53 -193.423)" fill="#181b1f"/>
    <path id="Path_10" data-name="Path 10" d="M79.492,301.643a2.835,2.835,0,0,1-1.68-.55,37.039,37.039,0,0,1-14.6-23.034,2.847,2.847,0,0,1,5.6-1.062,31.364,31.364,0,0,0,12.365,19.5,2.848,2.848,0,0,1-1.684,5.145Z" transform="translate(-51.175 -220.017)" fill="#2e2c27"/>
    <path id="Path_11" data-name="Path 11" d="M364.14,122.241a2.848,2.848,0,0,1-2.794-2.317,31.363,31.363,0,0,0-12.365-19.5,2.847,2.847,0,0,1,3.364-4.6,37.039,37.039,0,0,1,14.6,23.034,2.85,2.85,0,0,1-2.8,3.379Z" transform="translate(-272.328 -76.055)" fill="#181b1f"/>
  </g>
  <text id="RetroMusic" transform="translate(14 29.849)" fill="#fff" font-size="14" font-family="Poppins-SemiBold, Poppins" font-weight="600"><tspan x="0" y="0">RetroMusic</tspan></text>
</svg>
