<svg xmlns="http://www.w3.org/2000/svg" width="121.895" height="121.895" viewBox="0 0 121.895 121.895">
  <path id="Icon_ionic-ios-arrow-dropleft-circle" data-name="Icon ionic-ios-arrow-dropleft-circle" d="M64.323,3.375A61,61,0,1,0,125.27,64.323,60.938,60.938,0,0,0,64.323,3.375ZM77.04,88.086a5.677,5.677,0,0,1,0,8,5.586,5.586,0,0,1-3.985,1.641,5.684,5.684,0,0,1-4.014-1.67L41.5,68.425a5.649,5.649,0,0,1,.176-7.794L69.626,32.589a5.656,5.656,0,0,1,8,8l-24,23.734Z" transform="translate(-3.375 -3.375)"/>
</svg>
