<svg xmlns="http://www.w3.org/2000/svg" width="40.701" height="40.701" viewBox="0 0 40.701 40.701">
  <path id="Icon_awesome-facebook-square" data-name="Icon awesome-facebook-square" d="M36.341,2.25H4.361A4.361,4.361,0,0,0,0,6.611v31.98a4.361,4.361,0,0,0,4.361,4.361H16.83V29.114H11.107V22.6H16.83V17.637c0-5.646,3.362-8.765,8.51-8.765a34.675,34.675,0,0,1,5.044.44v5.542H27.543c-2.8,0-3.672,1.737-3.672,3.519V22.6H30.12l-1,6.513H23.871V42.951H36.341A4.361,4.361,0,0,0,40.7,38.591V6.611A4.361,4.361,0,0,0,36.341,2.25Z" transform="translate(0 -2.25)"/>
</svg>
