<svg xmlns="http://www.w3.org/2000/svg" width="98.178" height="68.725" viewBox="0 0 98.178 68.725">
  <path id="Icon_awesome-wave-square" data-name="Icon awesome-wave-square" d="M73.02,70.975H49.7a5.523,5.523,0,0,1-5.523-5.523V12.068H29.454V36a5.523,5.523,0,0,1-5.523,5.523H2.454A2.454,2.454,0,0,1,0,39.067V34.158A2.454,2.454,0,0,1,2.454,31.7H19.636V7.773A5.523,5.523,0,0,1,25.158,2.25H48.476A5.523,5.523,0,0,1,54,7.773V61.157H68.725V37.226A5.523,5.523,0,0,1,74.247,31.7H95.724a2.454,2.454,0,0,1,2.454,2.454v4.909a2.454,2.454,0,0,1-2.454,2.454H78.543V65.452A5.523,5.523,0,0,1,73.02,70.975Z" transform="translate(0 -2.25)" fill="#91B2F2"/>
</svg>
